# xmcd CD database file
#
# Track frame offsets:
#	150
#	31783
#	62536
#	79282
#	103962
#	134870
#	164327
#	189896
#	233114
#	258672
#	300766
#
# Disc length: 4458 seconds
#
# Revision: 0
# Processed by: cddbd v1.5.2PL0 Copyright (c) Steve Scherf et al.
# Submitted via: CDex 1.51
#
DISCID=8d11680b
DTITLE=Oliver Nelson - 8 Classic Albums CD1
DYEAR=1959
DGENRE=Jazz
TTITLE0=Jams and Jellies
TTITLE1=Passion Flower
TTITLE2=Don't Stand Up
TTITLE3=Ostinato
TTITLE4=What's New?
TTITLE5=Booze Blues Baby
TTITLE6=Blues at the Five Spot
TTITLE7=Blues for Mr. F. (Mort Fega)
TTITLE8=Anacruses
TTITLE9=Perdido
TTITLE10=In Passing
EXTD=YEAR: 1959
EXTT0=
EXTT1=
EXTT2=
EXTT3=
EXTT4=
EXTT5=
EXTT6=
EXTT7=
EXTT8=
EXTT9=
EXTT10=
PLAYORDER=
